<svg width="135" height="135" viewBox="0 0 135 135" fill="none" xmlns="http://www.w3.org/2000/svg">
<path d="M110 70C110 94.8528 89.8528 115 65 115C40.1472 115 20 94.8528 20 70C20 45.1472 40.1472 25 65 25C89.8528 25 110 45.1472 110 70ZM23.15 70C23.15 93.1131 41.8869 111.85 65 111.85C88.1131 111.85 106.85 93.1131 106.85 70C106.85 46.8869 88.1131 28.15 65 28.15C41.8869 28.15 23.15 46.8869 23.15 70Z" fill="white"/>
<path d="M130 70C130 105.899 100.899 135 65 135C29.1015 135 0 105.899 0 70C0 34.1015 29.1015 5 65 5C100.899 5 130 34.1015 130 70ZM3.25 70C3.25 104.104 30.8964 131.75 65 131.75C99.1036 131.75 126.75 104.104 126.75 70C126.75 35.8964 99.1036 8.25 65 8.25C30.8964 8.25 3.25 35.8964 3.25 70Z" fill="white"/>
<circle cx="25" cy="88" r="10" fill="white"/>
<circle cx="95" cy="38" r="10" fill="white"/>
<circle cx="100" cy="122" r="10" fill="white"/>
<circle cx="45" cy="10" r="10" fill="white"/>
<circle cx="125" cy="55" r="10" fill="white"/>
<circle cx="65" cy="70" r="25" fill="white"/>
</svg>
